:FULLY-SPECIFIED
:FORCE-ALL-JOINTS-BE-3DOF
:DEGREES
2854
root -6.07942 13.2709 -28.797 161.133 -66.8221 -159.42
lfemur -65.7863 45.1481 -6.06353
ltibia 77.0859 -0 0
lfoot -4.87764 -6.21473 0.00101174
ltoes -28.9657 0 0
rfemur -31.3155 -19.1844 22.1764
rtibia 88.835 -0 0
rfoot -40.9013 -28.9301 -0.000909124
rtoes -13.9568 0 0
lowerback 15.5977 5.62976 0.989888
upperback -4.51383 7.99399 1.63324
thorax -13.9226 3.69901 -0.913311
lowerneck -2.55341 9.62229 2.19617
upperneck 9.14068 12.5284 2.06404
head 3.39852 6.32904 0.766733
lclavicle -2.86498e-14 -1.43125e-14 0
lhumerus 5.3069 12.3236 84.2964
lradius 93.4392 -0 0
lwrist -19.0365 0 0
lhand -39.567 28.612 6.57534e-05
lfingers 7.12502 -0 0
lthumb -12.5504 58.2149 6.41894e-05
rclavicle -2.86498e-14 -1.43125e-14 0
rhumerus -59.1808 51.0784 -111.593
rradius 113.577 -0 0
rwrist -83.7808 0 0
rhand 7.86591 -26.2456 0.000222484
rfingers 7.12502 -0 0
rthumb 33.0995 -53.2247 0.000260476
2855
root -6.08047 13.2681 -28.7961 161.094 -66.8293 -159.367
lfemur -65.8307 45.14 -6.06019
ltibia 77.1195 -0 0
lfoot -4.90128 -6.22675 0.000991897
ltoes -29.0017 0 0
rfemur -31.336 -19.1778 22.2005
rtibia 88.8594 -0 0
rfoot -40.8956 -28.9748 -0.000891297
rtoes -13.9694 0 0
lowerback 15.613 5.6257 1.01287
upperback -4.51806 7.99421 1.63656
thorax -13.9341 3.6968 -0.924068
lowerneck -2.5573 9.62319 2.19683
upperneck 9.14321 12.5293 2.06511
head 3.40011 6.32958 0.767347
lclavicle -2.86498e-14 -1.43125e-14 0
lhumerus 5.31941 12.3295 84.2979
lradius 93.4291 -0 0
lwrist -19.0304 0 0
lhand -39.5651 28.6217 6.44641e-05
lfingers 7.12502 -0 0
lthumb -12.5485 58.2247 6.29308e-05
rclavicle -2.86498e-14 -1.43125e-14 0
rhumerus -59.1824 51.0923 -111.593
rradius 113.574 -0 0
rwrist -83.7635 0 0
rhand 7.87436 -26.2382 0.000218122
rfingers 7.12502 -0 0
rthumb 33.1075 -53.2156 0.000255369
2856
root -6.08153 13.2653 -28.7952 161.056 -66.8366 -159.313
lfemur -65.8752 45.132 -6.05684
ltibia 77.1531 -0 0
lfoot -4.92492 -6.23877 0.000967099
ltoes -29.0377 0 0
rfemur -31.3565 -19.1712 22.2246
rtibia 88.8838 -0 0
rfoot -40.8899 -29.0195 -0.000869015
rtoes -13.9819 0 0
lowerback 15.6283 5.62164 1.03585
upperback -4.5223 7.99444 1.63989
thorax -13.9456 3.69459 -0.934825
lowerneck -2.56118 9.62409 2.19748
upperneck 9.14573 12.5303 2.06619
head 3.40169 6.33012 0.767961
lclavicle -2.86498e-14 -1.43125e-14 0
lhumerus 5.33191 12.3353 84.2994
lradius 93.4189 -0 0
lwrist -19.0243 0 0
lhand -39.5632 28.6314 6.28525e-05
lfingers 7.12502 -0 0
lthumb -12.5467 58.2346 6.13575e-05
rclavicle -2.86498e-14 -1.43125e-14 0
rhumerus -59.1841 51.1063 -111.593
rradius 113.571 -0 0
rwrist -83.7461 0 0
rhand 7.88282 -26.2309 0.000212669
rfingers 7.12502 -0 0
rthumb 33.1156 -53.2065 0.000248985
2857
root -6.08258 13.2625 -28.7944 161.018 -66.8438 -159.26
lfemur -65.9196 45.124 -6.05348
ltibia 77.1868 -0 0
lfoot -4.94856 -6.25079 0.000937342
ltoes -29.0736 0 0
rfemur -31.3769 -19.1646 22.2486
rtibia 88.9081 -0 0
rfoot -40.8842 -29.0642 -0.000842275
rtoes -13.9945 0 0
lowerback 15.6436 5.61757 1.05882
upperback -4.52654 7.99466 1.64321
thorax -13.9571 3.69237 -0.945581
lowerneck -2.56507 9.62499 2.19814
upperneck 9.14825 12.5312 2.06726
head 3.40328 6.33065 0.768575
lclavicle -2.86498e-14 -1.43125e-14 0
lhumerus 5.34442 12.3412 84.3009
lradius 93.4088 -0 0
lwrist -19.0182 0 0
lhand -39.5613 28.6411 6.09185e-05
lfingers 7.12502 -0 0
lthumb -12.5449 58.2444 5.94696e-05
rclavicle -2.86498e-14 -1.43125e-14 0
rhumerus -59.1858 51.1202 -111.593
rradius 113.568 -0 0
rwrist -83.7288 0 0
rhand 7.89127 -26.2235 0.000206125
rfingers 7.12502 -0 0
rthumb 33.1236 -53.1974 0.000241324
